<svg width="418" height="415" viewBox="0 0 418 415" fill="none" xmlns="http://www.w3.org/2000/svg"><mask id="a" maskUnits="userSpaceOnUse" x="0" y="0" width="418" height="415"><path fill-rule="evenodd" clip-rule="evenodd" d="M261.63 53.035L208.597.002h-.001l-53.033 53.032.001.001L.001 208.6l53.033 53.033 118.159-118.16v271.126h75V143.664L364.16 261.631l53.033-53.033L261.63 53.035z" fill="#C4C4C4"/></mask><g mask="url(#a)" fill-rule="evenodd" clip-rule="evenodd" fill="#E36F1E"><path d="M310.5 262c9.113 0 16.5-7.387 16.5-16.5s-7.387-16.5-16.5-16.5-16.5 7.387-16.5 16.5 7.387 16.5 16.5 16.5zm0 2c10.217 0 18.5-8.283 18.5-18.5s-8.283-18.5-18.5-18.5-18.5 8.283-18.5 18.5 8.283 18.5 18.5 18.5z"/><path d="M310.5 255a9.5 9.5 0 0 0 9.5-9.5 9.5 9.5 0 0 0-9.5-9.5 9.5 9.5 0 0 0-9.5 9.5 9.5 9.5 0 0 0 9.5 9.5zm0 2c6.351 0 11.5-5.149 11.5-11.5s-5.149-11.5-11.5-11.5-11.5 5.149-11.5 11.5 5.149 11.5 11.5 11.5z"/><path d="M310.5 248a2.5 2.5 0 1 0 0-5 2.5 2.5 0 0 0 0 5zm0 2a4.5 4.5 0 1 0 0-9 4.5 4.5 0 0 0 0 9z"/><path d="M310.5 269c12.979 0 23.5-10.521 23.5-23.5S323.479 222 310.5 222 287 232.521 287 245.5s10.521 23.5 23.5 23.5zm0 2c14.083 0 25.5-11.417 25.5-25.5S324.583 220 310.5 220 285 231.417 285 245.5s11.417 25.5 25.5 25.5z"/><path d="M310.5 276c16.845 0 30.5-13.655 30.5-30.5S327.345 215 310.5 215 280 228.655 280 245.5s13.655 30.5 30.5 30.5zm0 2c17.949 0 32.5-14.551 32.5-32.5 0-17.949-14.551-32.5-32.5-32.5-17.949 0-32.5 14.551-32.5 32.5 0 17.949 14.551 32.5 32.5 32.5z"/><path d="M310.5 283c20.711 0 37.5-16.789 37.5-37.5S331.211 208 310.5 208 273 224.789 273 245.5s16.789 37.5 37.5 37.5zm0 2c21.815 0 39.5-17.685 39.5-39.5S332.315 206 310.5 206 271 223.685 271 245.5s17.685 39.5 39.5 39.5z"/><path d="M310.5 290c24.577 0 44.5-19.923 44.5-44.5S335.077 201 310.5 201 266 220.923 266 245.5s19.923 44.5 44.5 44.5zm0 2c25.681 0 46.5-20.819 46.5-46.5S336.181 199 310.5 199 264 219.819 264 245.5s20.819 46.5 46.5 46.5z"/><path d="M310.5 297c28.443 0 51.5-23.057 51.5-51.5S338.943 194 310.5 194 259 217.057 259 245.5s23.057 51.5 51.5 51.5zm0 2c29.547 0 53.5-23.953 53.5-53.5S340.047 192 310.5 192 257 215.953 257 245.5s23.953 53.5 53.5 53.5z"/><path d="M310.5 304c32.309 0 58.5-26.191 58.5-58.5S342.809 187 310.5 187 252 213.191 252 245.5s26.191 58.5 58.5 58.5zm0 2c33.413 0 60.5-27.087 60.5-60.5S343.913 185 310.5 185 250 212.087 250 245.5s27.087 60.5 60.5 60.5z"/><path d="M310.5 311c36.175 0 65.5-29.325 65.5-65.5S346.675 180 310.5 180 245 209.325 245 245.5s29.325 65.5 65.5 65.5zm0 2c37.279 0 67.5-30.221 67.5-67.5 0-37.279-30.221-67.5-67.5-67.5-37.279 0-67.5 30.221-67.5 67.5 0 37.279 30.221 67.5 67.5 67.5z"/><path d="M310.5 318c40.041 0 72.5-32.459 72.5-72.5S350.541 173 310.5 173 238 205.459 238 245.5s32.459 72.5 72.5 72.5zm0 2c41.145 0 74.5-33.355 74.5-74.5S351.645 171 310.5 171 236 204.355 236 245.5s33.355 74.5 74.5 74.5z"/><path d="M310.5 325c43.907 0 79.5-35.593 79.5-79.5S354.407 166 310.5 166 231 201.593 231 245.5s35.593 79.5 79.5 79.5zm0 2c45.011 0 81.5-36.489 81.5-81.5S355.511 164 310.5 164 229 200.489 229 245.5s36.489 81.5 81.5 81.5z"/><path d="M310.5 332c47.773 0 86.5-38.727 86.5-86.5S358.273 159 310.5 159 224 197.727 224 245.5s38.727 86.5 86.5 86.5zm0 2c48.877 0 88.5-39.623 88.5-88.5S359.377 157 310.5 157 222 196.623 222 245.5s39.623 88.5 88.5 88.5z"/><path d="M310.5 339c51.639 0 93.5-41.861 93.5-93.5S362.139 152 310.5 152 217 193.861 217 245.5s41.861 93.5 93.5 93.5zm0 2c52.743 0 95.5-42.757 95.5-95.5S363.243 150 310.5 150 215 192.757 215 245.5s42.757 95.5 95.5 95.5z"/><path d="M310.5 346c55.505 0 100.5-44.995 100.5-100.5S366.005 145 310.5 145 210 189.995 210 245.5 254.995 346 310.5 346zm0 2c56.609 0 102.5-45.891 102.5-102.5S367.109 143 310.5 143 208 188.891 208 245.5 253.891 348 310.5 348z"/><path d="M310.5 353c59.371 0 107.5-48.129 107.5-107.5S369.871 138 310.5 138 203 186.129 203 245.5 251.129 353 310.5 353zm0 2c60.475 0 109.5-49.025 109.5-109.5S370.975 136 310.5 136 201 185.025 201 245.5 250.025 355 310.5 355z"/><path d="M310.5 360c63.237 0 114.5-51.263 114.5-114.5S373.737 131 310.5 131 196 182.263 196 245.5 247.263 360 310.5 360zm0 2c64.341 0 116.5-52.159 116.5-116.5 0-64.341-52.159-116.5-116.5-116.5-64.341 0-116.5 52.159-116.5 116.5 0 64.341 52.159 116.5 116.5 116.5z"/><path d="M310.5 367c67.103 0 121.5-54.397 121.5-121.5 0-67.103-54.397-121.5-121.5-121.5-67.103 0-121.5 54.397-121.5 121.5 0 67.103 54.397 121.5 121.5 121.5zm0 2c68.207 0 123.5-55.293 123.5-123.5S378.707 122 310.5 122 187 177.293 187 245.5 242.293 369 310.5 369z"/><path d="M310.5 374c70.969 0 128.5-57.531 128.5-128.5S381.469 117 310.5 117 182 174.531 182 245.5 239.531 374 310.5 374zm0 2c72.073 0 130.5-58.427 130.5-130.5 0-72.073-58.427-130.5-130.5-130.5-72.073 0-130.5 58.427-130.5 130.5 0 72.073 58.427 130.5 130.5 130.5z"/><path d="M310.5 381c74.835 0 135.5-60.665 135.5-135.5 0-74.835-60.665-135.5-135.5-135.5-74.835 0-135.5 60.665-135.5 135.5 0 74.835 60.665 135.5 135.5 135.5zm0 2c75.939 0 137.5-61.561 137.5-137.5S386.439 108 310.5 108 173 169.561 173 245.5 234.561 383 310.5 383z"/><path d="M310.5 388c78.701 0 142.5-63.799 142.5-142.5S389.201 103 310.5 103 168 166.799 168 245.5 231.799 388 310.5 388zm0 2c79.805 0 144.5-64.695 144.5-144.5S390.305 101 310.5 101 166 165.695 166 245.5 230.695 390 310.5 390z"/><path d="M310.5 395c82.567 0 149.5-66.933 149.5-149.5S393.067 96 310.5 96 161 162.933 161 245.5 227.933 395 310.5 395zm0 2c83.671 0 151.5-67.829 151.5-151.5S394.171 94 310.5 94 159 161.829 159 245.5 226.829 397 310.5 397z"/><path d="M310.5 402c86.433 0 156.5-70.067 156.5-156.5S396.933 89 310.5 89 154 159.067 154 245.5 224.067 402 310.5 402zm0 2c87.537 0 158.5-70.963 158.5-158.5S398.037 87 310.5 87 152 157.963 152 245.5 222.963 404 310.5 404z"/><path d="M310.5 409c90.299 0 163.5-73.201 163.5-163.5S400.799 82 310.5 82 147 155.201 147 245.5 220.201 409 310.5 409zm0 2c91.403 0 165.5-74.097 165.5-165.5S401.903 80 310.5 80 145 154.097 145 245.5 219.097 411 310.5 411z"/><path d="M310.5 416c94.165 0 170.5-76.335 170.5-170.5S404.665 75 310.5 75 140 151.335 140 245.5 216.335 416 310.5 416zm0 2c95.269 0 172.5-77.231 172.5-172.5S405.769 73 310.5 73 138 150.231 138 245.5 215.231 418 310.5 418z"/><path d="M310.5 423c98.031 0 177.5-79.469 177.5-177.5S408.531 68 310.5 68 133 147.469 133 245.5 212.469 423 310.5 423zm0 2c99.135 0 179.5-80.365 179.5-179.5S409.635 66 310.5 66 131 146.365 131 245.5 211.365 425 310.5 425z"/><path d="M310.5 430C412.397 430 495 347.397 495 245.5S412.397 61 310.5 61 126 143.603 126 245.5 208.603 430 310.5 430zm0 2C413.501 432 497 348.501 497 245.5S413.501 59 310.5 59 124 142.499 124 245.5 207.499 432 310.5 432z"/><path d="M310.5 437C416.263 437 502 351.263 502 245.5S416.263 54 310.5 54 119 139.737 119 245.5 204.737 437 310.5 437zm0 2C417.367 439 504 352.367 504 245.5S417.367 52 310.5 52 117 138.633 117 245.5 203.633 439 310.5 439z"/><path d="M310.5 444C420.129 444 509 355.129 509 245.5S420.129 47 310.5 47 112 135.871 112 245.5 200.871 444 310.5 444zm0 2C421.233 446 511 356.233 511 245.5S421.233 45 310.5 45 110 134.767 110 245.5 199.767 446 310.5 446z"/><path d="M310.5 451C423.995 451 516 358.995 516 245.5S423.995 40 310.5 40 105 132.005 105 245.5 197.005 451 310.5 451zm0 2C425.099 453 518 360.099 518 245.5S425.099 38 310.5 38 103 130.901 103 245.5 195.901 453 310.5 453z"/><path d="M310.5 458C427.861 458 523 362.861 523 245.5S427.861 33 310.5 33 98 128.139 98 245.5 193.139 458 310.5 458zm0 2C428.965 460 525 363.965 525 245.5S428.965 31 310.5 31 96 127.035 96 245.5 192.035 460 310.5 460z"/><path d="M310.5 465C431.727 465 530 366.727 530 245.5S431.727 26 310.5 26 91 124.273 91 245.5 189.273 465 310.5 465zm0 2C432.831 467 532 367.831 532 245.5S432.831 24 310.5 24 89 123.169 89 245.5 188.169 467 310.5 467z"/><path d="M310.5 472C435.592 472 537 370.592 537 245.5S435.592 19 310.5 19 84 120.408 84 245.5 185.408 472 310.5 472zm0 2C436.697 474 539 371.697 539 245.5S436.697 17 310.5 17 82 119.303 82 245.5 184.303 474 310.5 474z"/><path d="M310.5 479C439.458 479 544 374.458 544 245.5S439.458 12 310.5 12 77 116.542 77 245.5 181.542 479 310.5 479zm0 2C440.563 481 546 375.563 546 245.5S440.563 10 310.5 10 75 115.437 75 245.5 180.437 481 310.5 481z"/><path d="M310.5 486C443.324 486 551 378.324 551 245.5S443.324 5 310.5 5 70 112.676 70 245.5 177.676 486 310.5 486zm0 2C444.429 488 553 379.429 553 245.5S444.429 3 310.5 3 68 111.571 68 245.5 176.571 488 310.5 488z"/><path d="M310.5 493C447.19 493 558 382.19 558 245.5S447.19-2 310.5-2 63 108.81 63 245.5 173.81 493 310.5 493zm0 2C448.295 495 560 383.295 560 245.5 560 107.705 448.295-4 310.5-4 172.705-4 61 107.705 61 245.5 61 383.295 172.705 495 310.5 495z"/><path d="M310.5 500C451.056 500 565 386.056 565 245.5 565 104.944 451.056-9 310.5-9 169.944-9 56 104.944 56 245.5 56 386.056 169.944 500 310.5 500zm0 2C452.161 502 567 387.161 567 245.5S452.161-11 310.5-11 54 103.839 54 245.5 168.839 502 310.5 502z"/><path d="M310.5 507C454.922 507 572 389.922 572 245.5S454.922-16 310.5-16 49 101.078 49 245.5 166.078 507 310.5 507zm0 2C456.027 509 574 391.027 574 245.5S456.027-18 310.5-18 47 99.973 47 245.5 164.973 509 310.5 509z"/><path d="M310.5 514C458.788 514 579 393.788 579 245.5S458.788-23 310.5-23 42 97.212 42 245.5 162.212 514 310.5 514zm0 2C459.893 516 581 394.893 581 245.5S459.893-25 310.5-25 40 96.107 40 245.5 161.107 516 310.5 516z"/><path d="M310.5 521C462.654 521 586 397.654 586 245.5S462.654-30 310.5-30 35 93.346 35 245.5 158.346 521 310.5 521zm0 2C463.759 523 588 398.759 588 245.5 588 92.241 463.759-32 310.5-32 157.241-32 33 92.241 33 245.5 33 398.759 157.241 523 310.5 523z"/><path d="M310.5 528C466.52 528 593 401.52 593 245.5 593 89.48 466.52-37 310.5-37 154.48-37 28 89.48 28 245.5 28 401.52 154.48 528 310.5 528zm0 2C467.625 530 595 402.625 595 245.5S467.625-39 310.5-39 26 88.375 26 245.5 153.375 530 310.5 530z"/><path d="M310.5 535C470.386 535 600 405.386 600 245.5S470.386-44 310.5-44 21 85.614 21 245.5 150.614 535 310.5 535zm0 2C471.491 537 602 406.491 602 245.5S471.491-46 310.5-46 19 84.509 19 245.5 149.509 537 310.5 537z"/><path d="M310.5 542C474.252 542 607 409.252 607 245.5S474.252-51 310.5-51 14 81.748 14 245.5 146.748 542 310.5 542zm0 2C475.357 544 609 410.357 609 245.5S475.357-53 310.5-53 12 80.643 12 245.5 145.643 544 310.5 544z"/><path d="M310.5 549C478.118 549 614 413.118 614 245.5S478.118-58 310.5-58 7 77.882 7 245.5 142.882 549 310.5 549zm0 2C479.223 551 616 414.223 616 245.5S479.223-60 310.5-60 5 76.777 5 245.5 141.777 551 310.5 551z"/><path d="M310.5 556C481.984 556 621 416.984 621 245.5S481.984-65 310.5-65 0 74.016 0 245.5 139.016 556 310.5 556zm0 2C483.089 558 623 418.089 623 245.5S483.089-67 310.5-67-2 72.911-2 245.5 137.911 558 310.5 558z"/><path d="M310.5 563C485.85 563 628 420.85 628 245.5S485.85-72 310.5-72-7 70.15-7 245.5 135.15 563 310.5 563zm0 2C486.955 565 630 421.955 630 245.5S486.955-74 310.5-74-9 69.045-9 245.5 134.045 565 310.5 565z"/><path d="M310.5 570C489.716 570 635 424.716 635 245.5S489.716-79 310.5-79-14 66.284-14 245.5 131.284 570 310.5 570zm0 2C490.821 572 637 425.821 637 245.5S490.821-81 310.5-81-16 65.179-16 245.5 130.179 572 310.5 572z"/><path d="M310.5 577C493.582 577 642 428.582 642 245.5S493.582-86 310.5-86-21 62.418-21 245.5 127.418 577 310.5 577zm0 2C494.687 579 644 429.687 644 245.5S494.687-88 310.5-88-23 61.313-23 245.5 126.313 579 310.5 579z"/><path d="M310.5 584C497.448 584 649 432.448 649 245.5S497.448-93 310.5-93-28 58.552-28 245.5 123.552 584 310.5 584zm0 2C498.553 586 651 433.553 651 245.5S498.553-95 310.5-95-30 57.447-30 245.5 122.447 586 310.5 586z"/><path d="M310.5 591C501.314 591 656 436.314 656 245.5S501.314-100 310.5-100-35 54.686-35 245.5 119.686 591 310.5 591zm0 2C502.419 593 658 437.419 658 245.5S502.419-102 310.5-102-37 53.581-37 245.5 118.581 593 310.5 593z"/><path d="M310.5 598C505.18 598 663 440.18 663 245.5S505.18-107 310.5-107-42 50.82-42 245.5 115.82 598 310.5 598zm0 2C506.285 600 665 441.285 665 245.5S506.285-109 310.5-109-44 49.715-44 245.5 114.715 600 310.5 600z"/></g></svg>